<?xml version="1.0" encoding="utf-8"?>
<!-- Generator: Adobe Illustrator 16.0.0, SVG Export Plug-In . SVG Version: 6.00 Build 0)  -->
<!DOCTYPE svg PUBLIC "-//W3C//DTD SVG 1.1//EN" "http://www.w3.org/Graphics/SVG/1.1/DTD/svg11.dtd">
<svg version="1.1" id="Calque_1" xmlns="http://www.w3.org/2000/svg" xmlns:xlink="http://www.w3.org/1999/xlink" x="0px" y="0px"
	 width="152.527px" height="216.701px" viewBox="0 0 152.527 216.701" enable-background="new 0 0 152.527 216.701"
	 xml:space="preserve">
<path fill="none" stroke="#EE5998" stroke-width="7.7796" stroke-miterlimit="10" d="M118.308,134.707
	c-12.123,12.385-28.939,20.056-47.532,20.056c-36.936,0-66.887-30.29-66.887-67.642c0-19.99,8.574-37.959,22.204-50.345"/>
<path fill="none" stroke="#4886C5" stroke-width="7.7796" stroke-miterlimit="10" d="M26.093,36.775
	c11.844-10.764,27.509-17.313,44.683-17.313c36.934,0,66.883,30.29,66.883,67.659c0,18.552-7.389,35.362-19.352,47.586"/>
<line stroke="#EE5998" stroke-width="7" stroke-miterlimit="10" x1="68.951" y1="154.119" x2="68.951" y2="183.119"/>
<polygon fill="none" stroke="#EE5998" stroke-width="7.9429" stroke-miterlimit="10" points="88.664,180.322 68.812,209.654 
	48.745,180.471 "/>
<line fill="none" stroke="#4886C5" stroke-width="7.7796" stroke-miterlimit="10" x1="145.351" y1="3.62" x2="115.628" y2="37.167"/>
<line fill="none" stroke="#4886C5" stroke-width="7.7796" stroke-miterlimit="10" x1="149.959" y1="32.778" x2="115.986" y2="2.922"/>
<line fill="none" stroke="#EE5998" stroke-width="7" stroke-miterlimit="10" x1="45.451" y1="80.619" x2="96.451" y2="80.619"/>
<line stroke="#4886C5" stroke-width="7" stroke-miterlimit="10" x1="45.451" y1="96.619" x2="96.451" y2="96.619"/>
</svg>
